<svg width="46" height="46" viewBox="0 0 46 46" fill="none" xmlns="http://www.w3.org/2000/svg">
<g clip-path="url(#clip0_596_2)">
<mask id="mask0_596_2" style="mask-type:luminance" maskUnits="userSpaceOnUse" x="0" y="0" width="46" height="46">
<path d="M0 0H46V46H0V0Z" fill="white"/>
<path fill-rule="evenodd" clip-rule="evenodd" d="M21.8677 7.07697C20.4842 7.07697 19.2139 7.63074 18.2337 8.56135C17.6852 9.08328 17.2288 9.72374 16.9015 10.4474C16.8085 10.6536 16.6401 10.8164 16.4308 10.9023C16.2215 10.9882 15.9873 10.9906 15.7762 10.9091C12.88 10.6915 10.2262 12.9844 9.89886 16.2717C9.67771 18.5186 10.6189 20.5886 12.1652 21.8058C12.3404 21.9438 12.4483 22.1331 12.4872 22.3348C12.5676 22.5156 12.585 22.718 12.5368 22.9098C12.3718 23.5638 12.318 24.2408 12.3776 24.9126C12.6252 27.7504 15.3339 29.7373 17.7772 29.4896C18.7202 29.394 19.3802 29.2384 19.8773 28.95C20.3214 28.6917 20.7036 28.2883 21.0132 27.5523C21.0452 27.4306 21.1027 27.3172 21.182 27.2195C21.2614 27.1219 21.3606 27.0422 21.4731 26.986C21.5856 26.9297 21.7088 26.8981 21.8346 26.8932C21.9603 26.8884 22.0856 26.9104 22.2021 26.9578C22.3308 27.0089 22.4457 27.0894 22.5376 27.193C22.6294 27.2965 22.6957 27.4202 22.7311 27.554C23.0407 28.2883 23.4211 28.6917 23.8669 28.95C24.3623 29.2384 25.024 29.394 25.9652 29.4896C28.4086 29.7373 31.1172 27.7504 31.3649 24.9126C31.4245 24.2408 31.3707 23.5638 31.2057 22.9098C31.1576 22.7172 31.1757 22.5141 31.257 22.333C31.297 22.1246 31.4107 21.9374 31.5772 21.8058C33.1253 20.5886 34.0666 18.5186 33.8436 16.2717C33.5181 12.9809 30.8554 10.6862 27.9574 10.9109C27.7464 10.9918 27.5124 10.9888 27.3035 10.9026C27.0946 10.8164 26.9266 10.6535 26.8339 10.4474C26.5158 9.73856 26.0634 9.09809 25.5017 8.56135C24.5276 7.61568 23.2253 7.08373 21.8677 7.07697ZM28.1485 9.12928C27.7684 8.44406 27.2871 7.82016 26.7207 7.27866C25.4177 6.02052 23.679 5.3144 21.8677 5.30774C20.0564 5.3144 18.3177 6.02052 17.0147 7.27866C16.4539 7.8112 15.9709 8.43574 15.5869 9.12751C11.7654 9.01428 8.53656 12.0839 8.13848 16.1C7.87309 18.7716 8.90809 21.291 10.7251 22.908C10.5889 23.619 10.5526 24.3455 10.6172 25.0665C10.9533 28.9252 14.5696 31.595 17.9559 31.2517C18.9679 31.1491 19.9339 30.9634 20.7637 30.4821C21.1871 30.238 21.5563 29.9254 21.8712 29.5444C22.1885 29.9254 22.5577 30.238 22.9788 30.4821C23.8103 30.9634 24.7763 31.1491 25.7883 31.2517C29.1746 31.595 32.7909 28.9252 33.1271 25.0683C33.1911 24.3472 33.1542 23.6207 33.0174 22.9098C34.8344 21.291 35.8694 18.7716 35.604 16.0983C35.2059 12.0804 31.9718 9.01251 28.1485 9.12928Z" fill="black"/>
<path fill-rule="evenodd" clip-rule="evenodd" d="M27.2267 18.1223C27.2864 18.222 27.3259 18.3324 27.343 18.4474C27.36 18.5623 27.3542 18.6795 27.326 18.7922C27.2977 18.9049 27.2475 19.0109 27.1783 19.1043C27.109 19.1976 27.0221 19.2763 26.9224 19.336L22.9292 21.7315V38.0385C22.9292 38.2732 22.836 38.4982 22.6701 38.6641C22.5042 38.83 22.2792 38.9232 22.0446 38.9232C21.81 38.9232 21.585 38.83 21.4191 38.6641C21.2532 38.4982 21.16 38.2732 21.16 38.0385V26.1546L17.1668 23.7609C16.9655 23.6403 16.8204 23.4446 16.7633 23.217C16.7351 23.1043 16.7293 22.9872 16.7463 22.8722C16.7633 22.7573 16.8028 22.6468 16.8625 22.5472C16.9222 22.4475 17.001 22.3606 17.0943 22.2913C17.1876 22.2221 17.2937 22.1719 17.4064 22.1436C17.634 22.0866 17.8749 22.1223 18.0762 22.2429L21.16 24.0935V15.0385C21.16 14.8039 21.2532 14.5789 21.4191 14.413C21.585 14.2471 21.81 14.1539 22.0446 14.1539C22.2792 14.1539 22.5042 14.2471 22.6701 14.413C22.836 14.5789 22.9292 14.8039 22.9292 15.0385V19.6686L26.013 17.818C26.1127 17.7583 26.2231 17.7188 26.3381 17.7017C26.453 17.6847 26.5702 17.6905 26.6829 17.7187C26.7956 17.747 26.9016 17.7972 26.9949 17.8664C27.0882 17.9357 27.167 18.0226 27.2267 18.1223Z" fill="black"/>
</mask>
<g mask="url(#mask0_596_2)">
<path d="M23 46C35.7025 46 46 35.7025 46 23C46 10.2975 35.7025 0 23 0C10.2975 0 0 10.2975 0 23C0 35.7025 10.2975 46 23 46Z" fill="white"/>
</g>
</g>
<defs>
<clipPath id="clip0_596_2">
<rect width="46" height="46" fill="white"/>
</clipPath>
</defs>
</svg>
