<svg width="18" height="18" viewBox="0 0 18 18" fill="none" xmlns="http://www.w3.org/2000/svg">
<path d="M9.04859 0C10.3866 0.0398083 11.7513 0.0729819 13.1159 0.132694C14.0279 0.172503 14.8933 0.411353 15.6788 0.895687C16.8171 1.59897 17.4894 2.62735 17.7823 3.91449C17.9487 4.64431 17.982 5.38739 17.9887 6.13048C18.002 8.06119 18.002 9.99189 17.9887 11.9226C17.9887 12.6524 17.9487 13.3889 17.7823 14.1121C17.4628 15.4921 16.7239 16.5669 15.4724 17.2569C14.7535 17.655 13.968 17.8408 13.1492 17.9005C11.6514 18 10.1536 18.0066 8.64918 17.9934C7.62403 17.9867 6.59223 17.9735 5.56708 17.9403C4.7017 17.9137 3.84297 17.8142 3.03084 17.4759C1.8193 16.9716 0.980542 16.1025 0.494595 14.8883C0.181725 14.1054 0.1085 13.2893 0.0685596 12.4666C-0.0179789 10.6819 0.00199151 8.9038 0.00199151 7.13233C0.00199151 6.33616 0.0419323 5.53999 0.1085 4.74383C0.195039 3.69554 0.521222 2.72024 1.19356 1.8909C1.8659 1.06819 2.72462 0.544047 3.74977 0.305197C4.18247 0.205676 4.62847 0.132694 5.06782 0.119425C6.38587 0.0597125 7.70391 0.0398083 9.04859 0ZM1.57965 8.97678C1.57965 8.97678 1.60628 8.97678 1.6196 8.97678C1.6196 9.88574 1.60628 10.7881 1.6196 11.697C1.63291 12.261 1.65288 12.8249 1.7261 13.3756C1.90584 14.7556 2.62477 15.7309 3.99607 16.1489C4.35554 16.2617 4.74164 16.3281 5.12107 16.3413C6.14622 16.3878 7.17803 16.4143 8.20317 16.4209C9.46131 16.4276 10.7128 16.4143 11.9709 16.401C12.5834 16.3944 13.1891 16.3745 13.7882 16.2352C14.6936 16.0295 15.4125 15.5584 15.8785 14.749C16.1447 14.2846 16.2912 13.7803 16.3311 13.2495C16.3777 12.6259 16.4243 12.0022 16.4243 11.3785C16.431 9.5739 16.431 7.76926 16.411 5.96461C16.411 5.43384 16.3511 4.89642 16.2579 4.37228C16.0848 3.39034 15.5656 2.62735 14.6736 2.14302C14.1011 1.83118 13.482 1.70512 12.8363 1.67858C11.8844 1.64541 10.9258 1.61224 9.97388 1.6056C8.67581 1.59897 7.37107 1.61224 6.073 1.63214C5.48054 1.63878 4.88809 1.66532 4.30894 1.79137C3.01752 2.07003 2.17211 2.81976 1.8193 4.10026C1.69282 4.56469 1.64622 5.04902 1.63291 5.52672C1.60628 6.67453 1.59297 7.82897 1.573 8.98341L1.57965 8.97678Z" fill="#FFFAF3"/>
<path d="M9.01997 13.6012C6.47041 13.6277 4.38683 11.5245 4.41346 8.97014C4.44009 6.44895 6.49704 4.41872 9.03328 4.43199C11.5828 4.44526 13.6331 6.50203 13.6265 9.02986C13.6198 11.6373 11.4697 13.641 9.01997 13.6012ZM12.0488 9.02986C12.0488 7.35127 10.6775 5.98452 8.99334 5.98452C7.35577 5.98452 5.98447 7.35791 5.98447 8.99005C5.98447 10.6952 7.32914 12.0354 9.05325 12.0354C10.6908 12.0354 12.0422 10.6753 12.0422 9.02986H12.0488Z" fill="#FFFAF3"/>
<path d="M14.8846 4.19978C14.8913 4.79027 14.432 5.26133 13.8462 5.26797C13.2604 5.26797 12.7944 4.82344 12.7877 4.25286C12.7744 3.66237 13.2337 3.17803 13.8129 3.1714C14.412 3.1714 14.878 3.61592 14.8846 4.19978Z" fill="#FFFAF3"/>
</svg>
