<svg width="18" height="18" viewBox="0 0 18 18" fill="none" xmlns="http://www.w3.org/2000/svg">
<path d="M7.28859 6.42759V9.37241C6.49127 9.6 5.70201 9.76552 4.96913 10.0483C2.99597 10.8 3.07651 12.6483 3.80134 13.6552C4.75973 14.9931 6.95033 15.4069 8.30335 14.4897C9.42282 13.7379 9.67248 12.6483 9.68053 11.5103C9.68859 8.43448 9.68053 5.36552 9.67248 2.28965C9.67248 1.53793 9.67248 0.786206 9.67248 -0.00689697H13.1195C13.5141 2.41379 14.9638 3.97931 18 4.2V7.04138C17.1463 7.14483 16.3248 7.06207 15.5275 6.8C14.7463 6.53793 13.9893 6.22759 13.1758 5.92414C13.1758 6.11034 13.1758 6.28276 13.1758 6.45517C13.1517 8.34483 13.1919 10.2414 13.0953 12.1241C12.9664 14.6552 10.9611 16.9655 8.34362 17.6966C4.25235 18.8276 0.845636 16.4897 0.161072 13.5172C-0.402686 11.0621 0.378522 8.97241 2.86711 7.50345C4.16376 6.73793 5.65369 6.45517 7.28053 6.4069L7.28859 6.42759Z" fill="#FFFAF3"/>
</svg>
